<?xml version="1.0" encoding="UTF-8"?><svg id="Layer_1" xmlns="http://www.w3.org/2000/svg" width="602.69" height="605.6" xmlns:xlink="http://www.w3.org/1999/xlink" viewBox="0 0 602.69 605.6"><defs><style>.cls-1{stroke-width:8px;}.cls-1,.cls-2{fill:none;stroke:#fff;stroke-miterlimit:10;}.cls-3{clip-path:url(#clippath-1);}.cls-4{isolation:isolate;}.cls-5{clip-path:url(#clippath);}</style><clipPath id="clippath"><path class="cls-2" d="M11.17,355.27c10.85,49.35,38.38,96.22,82.54,133.73-44.16-37.51-71.69-84.38-82.54-133.73-1.87-9.29-4.38-21.72-5.19-31.16-.69-7.99-1.59-18.66-1.87-26.67-.22-6.51-.08-15.21.22-21.72.36-7.74,1.33-18.03,2.31-25.71.85-6.63,2.4-15.41,3.8-21.95,2.2-10.36,6.24-26.73,13.78-45.84,2.77-7.02,6.91-16.22,10.26-22.98,3.05-6.16,7.66-14.09,11.09-20.05,5.24-9.08,13.38-20.53,19.99-28.67,8.94-11.01,22.04-24.73,32.42-34.4,5.74-5.35,13.97-11.84,20.25-16.54,5.63-4.22,13.52-9.31,19.4-13.18,6.43-4.24,15.53-9.07,22.42-12.51,6.16-3.07,14.54-6.83,20.93-9.39,7.16-2.88,16.9-6.22,24.28-8.46,6.48-1.97,15.27-4.07,21.87-5.59,7.7-1.78,18.14-3.33,25.98-4.33,6.61-.85,15.49-1.43,22.14-1.82,8.35-.48,19.54-.33,27.9.09,9.74.48,22.71,1.77,32.33,3.38,6.04,1.01,14.08,2.48,20.05,3.89,7.24,1.71,16.87,4.19,23.94,6.51,18.69,6.12,29.8,10.63,47.55,19.49,4.63,2.31,10.69,5.64,15.14,8.29,6.01,3.59,13.91,8.54,19.68,12.5,5.45,3.74,12.58,8.93,17.73,13.07,2.43,1.96,5.69,4.56,8.05,6.61,3.7,3.2,8.55,7.55,12.14,10.87.69.63,6.96,6.46,15.23,15.36,1.41,1.52,3.27,3.55,4.63,5.11,2.71,3.13,6.3,7.32,8.92,10.52,2.8,3.41,4.32,5.43,8.83,11.4,1.42,1.89,3.23,4.47,4.61,6.39,3.91,5.47,9.2,13.85,9.48,14.31,1.57,2.6,3.69,6.03,5.21,8.66,1.61,2.78,3.73,6.51,5.22,9.36,1.93,3.71,4.5,8.66,6.31,12.43s4,8.6,5.59,12.34c10.38,24.31,17.61,49.77,21.5,75.67.92,6.12,1.93,14.31,2.38,20.47.57,7.89,1.07,18.44,1.02,26.35-.04,5.94-.16,24-4.02,47.35-3.81,23.03-9.69,40.41-11.62,46.13-4.36,12.9-11.87,29.51-18.05,41.65-3.46,6.79-8.79,15.46-12.94,21.85-3.79,5.84-9.33,13.29-13.51,18.86-4.65,6.18-11.43,13.98-16.79,19.56-4.95,5.15-11.72,11.87-17.05,16.64s-13.22,11.27-19.17,15.74c-16.44,12.33-31.3,20.63-41.72,25.9-18.58,9.39-34.74,14.92-45.12,18.07-7.62,2.32-17.91,5.05-25.74,6.52-13.13,2.47-30.87,4.51-44.2,5.55-8.33.65-19.49.42-27.83.04-22.97-1.03-41.16-4.51-52.3-7-19.09-4.26-38-10.46-56.2-18.4-6.48-2.83-15.04-6.82-21.22-10.26-3.14-1.75-7.39-3.98-10.46-5.84-6.01-3.65-13.94-8.66-19.79-12.55-2.82-1.87-6.5-4.48-9.19-6.53-5.05-3.85-11.75-9.04-16.61-13.13-3.72-3.14-7.83-6.82-12.24-10.94-3.74-3.51-5.7-5.49-10.44-10.3-2.29-2.32-10.67-11.16-18.36-20.72-9.03-11.22-13.34-17.59-17.91-24.34-3.44-5.09-6.36-9.95-9.73-15.59-1.79-3-4.03-7.09-5.69-10.16-1.99-3.68-4.5-8.66-6.31-12.43s-4-8.6-5.59-12.34c-2.71-6.37-6.16-14.95-8.28-21.55-3.22-10.03-6.91-23.59-9.47-33.81l.03-.07Z"/></clipPath><clipPath id="clippath-1"><path class="cls-2" d="M115.17,527.45c-4.95-4.21-20-17.04-36.6-36.61-8.92-10.51-15.13-19.27-17.78-23.01-3.1-4.38-3.46-4.93-9.37-14.12-1.49-2.31-3.33-5.49-4.75-7.84-2.58-4.26-7.91-14.08-10.94-20.35-3.56-7.39-7.94-17.42-10.96-25.05-2.22-5.61-4.89-13.2-6.63-18.98-2.35-7.79-5.11-18.3-6.98-26.22-17.67-80.38,8.92-167.33,79.97-231.06,114.68-102.87,301.76-106.33,417.85-7.73C392.9,17.87,205.82,21.33,91.14,124.2,20.09,187.94-6.5,274.89,11.17,355.27c-1.11-5.97-2.9-13.88-3.69-19.9-1.26-9.49-2.78-22.2-3.14-31.77-.49-13.03.02-30.46,1.13-43.45.73-8.52,2.22-19.87,4.18-28.19,1.81-7.7,3.93-18.05,6.29-25.6,2.02-6.46,4.8-15.06,7.22-21.39,8.13-21.25,22.83-52.17,49.74-83.3,7.02-8.13,16.95-18.54,25.09-25.55,10.74-9.25,25.92-20.6,37.69-28.5,6.35-4.26,15.34-9.13,22.15-12.6,18.12-9.25,34.01-14.83,44.59-18.12,35.77-11.1,68.56-13.53,94.62-12.77,6.49.19,15.13.84,21.6,1.42,7.94.71,18.43,2.58,26.31,3.86,9.17,1.49,21.2,4.65,30.09,7.37,22.12,6.76,35.37,12.8,48.08,18.9,4.41,2.12,10.19,5.16,14.43,7.6,6.11,3.52,14.17,8.38,20.04,12.27s12.9,8.9,18.21,13.01c8.18,6.31,12.98,10.47,17.99,14.93,1.82,1.62,4.22,3.8,5.97,5.48,3.16,3.04,7.35,7.13,10.42,10.28,1.22,1.25,7.6,7.86,13.95,15.39,4.17,4.95,15.23,18.09,27.15,37.14,5.92,9.46,9.98,17.13,10.15,17.45,4.78,9.05,6.29,12.04,11.19,22.92,2.09,4.64,4.65,10.92,6.38,15.7s4.12,11.22,5.55,16.14c2.27,7.82,5.15,18.29,6.98,26.22,1.38,5.95,2.8,13.98,3.71,20.02s1.89,14.31,2.4,20.47,1.05,14.73,1.02,21.05-.11,15.29-.5,21.83c-.49,8.27-1.69,19.26-2.91,27.45-3.43,22.92-9.36,41.13-11.31,47.12-4.21,12.94-11.56,29.61-17.62,41.79-3.45,6.93-8.79,15.8-12.94,22.33-3.73,5.86-9.2,13.36-13.33,18.95-4.62,6.25-11.43,14.1-16.71,19.8-5.28,5.7-12.69,13.2-18.62,18.33-5.41,4.67-12.67,10.84-18.38,15.14s-13.85,10.11-20.14,13.88c-5.97,3.57-13.95,8.32-20.15,11.48-6.8,3.47-15.99,7.89-23.11,10.63-6.37,2.45-14.88,5.68-21.4,7.7-7.32,2.27-17.17,5.06-24.68,6.57-13.11,2.64-30.84,4.89-44.16,6.15-7.69.73-18.01.66-25.73.47-8.3-.21-19.37-.82-27.59-1.97-12.16-1.7-28.31-4.56-40.22-7.52-8.19-2.04-19-5.29-26.91-8.26-4.88-1.84-11.41-4.26-16.2-6.31-5.74-2.46-13.34-5.89-18.9-8.74-3.21-1.65-7.5-3.82-10.62-5.63-6.14-3.56-14.33-8.34-20.24-12.27-4.75-3.15-17.37-11.53-31.11-23.23h-.01Z"/></clipPath></defs><g class="cls-4"><g class="cls-4"><g class="cls-5"><g class="cls-4"><path class="cls-1" d="M93.71,489c-116.1-98.6-117.24-261.93-2.57-364.79,18.28,83.15,127.21,230.48,243.3,329.08-114.67,102.87-222.46,118.86-240.73,35.71h0Z"/><path class="cls-1" d="M15.96,373.46c9.22,41.97,64.2,116.33,122.8,166.1"/><path class="cls-1" d="M15.04,242.59c15.78,71.8,109.84,199.02,210.09,284.15"/><path class="cls-1" d="M93.71,489C2.69,445.83,21.87,327.43,136.54,224.57"/><path class="cls-1" d="M93.71,489c-42.81,22.03,15.44-43.51,130.12-146.37"/><path class="cls-1" d="M93.71,489c18.28,83.15,126.06,67.16,240.73-35.71,116.1,98.6,195.39,111.13,177.12,27.98-114.67,102.87-301.76,106.33-417.85,7.73h0Z"/><path class="cls-1" d="M138.76,539.56c58.6,49.77,98.62,56.09,89.39,14.12"/><path class="cls-1" d="M225.13,526.74c100.25,85.14,168.72,95.95,152.94,24.16"/><path class="cls-1" d="M93.71,489c74.38,121.56,227.64,136.71,342.31,33.84"/><path class="cls-1" d="M93.71,489c109.47,127.1,291.18,146.75,405.86,43.88"/><path class="cls-1" d="M93.71,489c116.1,98.6,303.18,95.14,417.85-7.73-18.28-83.15-127.21-230.48-243.3-329.08-114.67,102.87-192.82,253.67-174.55,336.82h0Z"/><path class="cls-1" d="M228.16,553.68c-9.22-41.97-64.2-116.33-122.8-166.1"/><path class="cls-1" d="M378.06,550.9c-15.78-71.8-109.84-199.02-210.09-284.15"/><path class="cls-1" d="M93.71,489c91.02,43.17,257.77-5.23,372.45-108.09"/><path class="cls-1" d="M93.71,489c42.81-22.03,170.49-123.29,285.16-226.15"/><path class="cls-1" d="M93.71,489c-18.28-83.15,59.87-233.95,174.55-336.82C152.16,53.58,72.86,41.06,91.14,124.2c-114.67,102.87-113.53,266.2,2.57,364.79h0Z"/><path class="cls-1" d="M105.36,387.58c-58.6-49.77-98.62-56.09-89.39-14.12"/><path class="cls-1" d="M167.98,266.75C67.73,181.61-.74,170.79,15.04,242.59"/><path class="cls-1" d="M93.71,489C19.33,367.44,52.01,185.5,166.68,82.63"/><path class="cls-1" d="M93.71,489C-15.76,361.89-11.54,175.46,103.14,72.59"/><path class="cls-1" d="M91.14,124.2c114.68-102.87,301.76-106.33,417.85-7.73,18.28,83.15-59.87,233.94-174.55,336.82C218.35,354.69,109.42,207.35,91.14,124.2Z"/><path class="cls-1" d="M224.64,54.57c15.78,71.8,109.84,199.02,210.09,284.15"/><path class="cls-1" d="M374.55,51.79c9.22,41.97,64.2,116.33,122.8,166.1"/><path class="cls-1" d="M136.54,224.57c114.68-102.87,281.43-151.27,372.45-108.09"/><path class="cls-1" d="M223.83,342.63c114.68-102.87,242.35-204.12,285.16-226.15"/><path class="cls-1" d="M334.45,453.29c114.68-102.87,192.82-253.67,174.55-336.82,116.1,98.6,117.25,261.92,2.57,364.79,18.28,83.15-61.02,70.62-177.12-27.98h0Z"/><path class="cls-1" d="M434.73,338.72c100.25,85.14,168.72,95.95,152.94,24.16"/><path class="cls-1" d="M497.35,217.89c58.6,49.77,98.62,56.09,89.39,14.12"/><path class="cls-1" d="M436.03,522.84c114.68-102.87,147.35-284.81,72.97-406.37"/><path class="cls-1" d="M499.57,532.88c114.68-102.87,118.9-289.3,9.43-416.41"/><path class="cls-1" d="M511.56,481.27c114.68-102.87,113.53-266.2-2.57-364.79-18.28-83.15-126.05-67.16-240.73,35.71,116.1,98.6,225.03,245.94,243.3,329.08h0Z"/><path class="cls-1" d="M587.67,362.88c-15.78-71.8-109.84-199.02-210.09-284.15"/><path class="cls-1" d="M586.74,232.01c-9.22-41.97-64.2-116.33-122.8-166.1"/><path class="cls-1" d="M466.16,380.9c114.68-102.87,133.85-221.26,42.83-264.43"/><path class="cls-1" d="M378.88,262.85c114.68-102.87,172.93-168.4,130.12-146.37"/><path class="cls-1" d="M268.26,152.18c114.68-102.87,222.46-118.86,240.73-35.71C392.9,17.87,205.82,21.33,91.14,124.2c-18.28-83.15,61.02-70.62,177.12,27.98h0Z"/><path class="cls-1" d="M377.58,78.72C277.33-6.41,208.86-17.23,224.64,54.57"/><path class="cls-1" d="M463.94,65.91c-58.6-49.77-98.62-56.09-89.39-14.12"/><path class="cls-1" d="M166.68,82.63C281.36-20.25,434.62-5.09,508.99,116.47"/><path class="cls-1" d="M103.14,72.59C217.82-30.28,399.52-10.63,508.99,116.47"/></g><path class="cls-1" d="M11.17,355.27c10.85,49.35,38.38,96.22,82.54,133.73-44.16-37.51-71.69-84.38-82.54-133.73-1.87-9.29-4.38-21.72-5.19-31.16-.69-7.99-1.59-18.66-1.87-26.67-.22-6.51-.08-15.21.22-21.72.36-7.74,1.33-18.03,2.31-25.71.85-6.63,2.4-15.41,3.8-21.95,2.2-10.36,6.24-26.73,13.78-45.84,2.77-7.02,6.91-16.22,10.26-22.98,3.05-6.16,7.66-14.09,11.09-20.05,5.24-9.08,13.38-20.53,19.99-28.67,8.94-11.01,22.04-24.73,32.42-34.4,5.74-5.35,13.97-11.84,20.25-16.54,5.63-4.22,13.52-9.31,19.4-13.18,6.43-4.24,15.53-9.07,22.42-12.51,6.16-3.07,14.54-6.83,20.93-9.39,7.16-2.88,16.9-6.22,24.28-8.46,6.48-1.97,15.27-4.07,21.87-5.59,7.7-1.78,18.14-3.33,25.98-4.33,6.61-.85,15.49-1.43,22.14-1.82,8.35-.48,19.54-.33,27.9.09,9.74.48,22.71,1.77,32.33,3.38,6.04,1.01,14.08,2.48,20.05,3.89,7.24,1.71,16.87,4.19,23.94,6.51,18.69,6.12,29.8,10.63,47.55,19.49,4.63,2.31,10.69,5.64,15.14,8.29,6.01,3.59,13.91,8.54,19.68,12.5,5.45,3.74,12.58,8.93,17.73,13.07,2.43,1.96,5.69,4.56,8.05,6.61,3.7,3.2,8.55,7.55,12.14,10.87.69.63,6.96,6.46,15.23,15.36,1.41,1.52,3.27,3.55,4.63,5.11,2.71,3.13,6.3,7.32,8.92,10.52,2.8,3.41,4.32,5.43,8.83,11.4,1.42,1.89,3.23,4.47,4.61,6.39,3.91,5.47,9.2,13.85,9.48,14.31,1.57,2.6,3.69,6.03,5.21,8.66,1.61,2.78,3.73,6.51,5.22,9.36,1.93,3.71,4.5,8.66,6.31,12.43s4,8.6,5.59,12.34c10.38,24.31,17.61,49.77,21.5,75.67.92,6.12,1.93,14.31,2.38,20.47.57,7.89,1.07,18.44,1.02,26.35-.04,5.94-.16,24-4.02,47.35-3.81,23.03-9.69,40.41-11.62,46.13-4.36,12.9-11.87,29.51-18.05,41.65-3.46,6.79-8.79,15.46-12.94,21.85-3.79,5.84-9.33,13.29-13.51,18.86-4.65,6.18-11.43,13.98-16.79,19.56-4.95,5.15-11.72,11.87-17.05,16.64s-13.22,11.27-19.17,15.74c-16.44,12.33-31.3,20.63-41.72,25.9-18.58,9.39-34.74,14.92-45.12,18.07-7.62,2.32-17.91,5.05-25.74,6.52-13.13,2.47-30.87,4.51-44.2,5.55-8.33.65-19.49.42-27.83.04-22.97-1.03-41.16-4.51-52.3-7-19.09-4.26-38-10.46-56.2-18.4-6.48-2.83-15.04-6.82-21.22-10.26-3.14-1.75-7.39-3.98-10.46-5.84-6.01-3.65-13.94-8.66-19.79-12.55-2.82-1.87-6.5-4.48-9.19-6.53-5.05-3.85-11.75-9.04-16.61-13.13-3.72-3.14-7.83-6.82-12.24-10.94-3.74-3.51-5.7-5.49-10.44-10.3-2.29-2.32-10.67-11.16-18.36-20.72-9.03-11.22-13.34-17.59-17.91-24.34-3.44-5.09-6.36-9.95-9.73-15.59-1.79-3-4.03-7.09-5.69-10.16-1.99-3.68-4.5-8.66-6.31-12.43s-4-8.6-5.59-12.34c-2.71-6.37-6.16-14.95-8.28-21.55-3.22-10.03-6.91-23.59-9.47-33.81l.03-.07Z"/></g><path class="cls-2" d="M11.17,355.27c10.85,49.35,38.38,96.22,82.54,133.73-44.16-37.51-71.69-84.38-82.54-133.73-1.87-9.29-4.38-21.72-5.19-31.16-.69-7.99-1.59-18.66-1.87-26.67-.22-6.51-.08-15.21.22-21.72.36-7.74,1.33-18.03,2.31-25.71.85-6.63,2.4-15.41,3.8-21.95,2.2-10.36,6.24-26.73,13.78-45.84,2.77-7.02,6.91-16.22,10.26-22.98,3.05-6.16,7.66-14.09,11.09-20.05,5.24-9.08,13.38-20.53,19.99-28.67,8.94-11.01,22.04-24.73,32.42-34.4,5.74-5.35,13.97-11.84,20.25-16.54,5.63-4.22,13.52-9.31,19.4-13.18,6.43-4.24,15.53-9.07,22.42-12.51,6.16-3.07,14.54-6.83,20.93-9.39,7.16-2.88,16.9-6.22,24.28-8.46,6.48-1.97,15.27-4.07,21.87-5.59,7.7-1.78,18.14-3.33,25.98-4.33,6.61-.85,15.49-1.43,22.14-1.82,8.35-.48,19.54-.33,27.9.09,9.74.48,22.71,1.77,32.33,3.38,6.04,1.01,14.08,2.48,20.05,3.89,7.24,1.71,16.87,4.19,23.94,6.51,18.69,6.12,29.8,10.63,47.55,19.49,4.63,2.31,10.69,5.64,15.14,8.29,6.01,3.59,13.91,8.54,19.68,12.5,5.45,3.74,12.58,8.93,17.73,13.07,2.43,1.96,5.69,4.56,8.05,6.61,3.7,3.2,8.55,7.55,12.14,10.87.69.63,6.96,6.46,15.23,15.36,1.41,1.52,3.27,3.55,4.63,5.11,2.71,3.13,6.3,7.32,8.92,10.52,2.8,3.41,4.32,5.43,8.83,11.4,1.42,1.89,3.23,4.47,4.61,6.39,3.91,5.47,9.2,13.85,9.48,14.31,1.57,2.6,3.69,6.03,5.21,8.66,1.61,2.78,3.73,6.51,5.22,9.36,1.93,3.71,4.5,8.66,6.31,12.43s4,8.6,5.59,12.34c10.38,24.31,17.61,49.77,21.5,75.67.92,6.12,1.93,14.31,2.38,20.47.57,7.89,1.07,18.44,1.02,26.35-.04,5.94-.16,24-4.02,47.35-3.81,23.03-9.69,40.41-11.62,46.13-4.36,12.9-11.87,29.51-18.05,41.65-3.46,6.79-8.79,15.46-12.94,21.85-3.79,5.84-9.33,13.29-13.51,18.86-4.65,6.18-11.43,13.98-16.79,19.56-4.95,5.15-11.72,11.87-17.05,16.64s-13.22,11.27-19.17,15.74c-16.44,12.33-31.3,20.63-41.72,25.9-18.58,9.39-34.74,14.92-45.12,18.07-7.62,2.32-17.91,5.05-25.74,6.52-13.13,2.47-30.87,4.51-44.2,5.55-8.33.65-19.49.42-27.83.04-22.97-1.03-41.16-4.51-52.3-7-19.09-4.26-38-10.46-56.2-18.4-6.48-2.83-15.04-6.82-21.22-10.26-3.14-1.75-7.39-3.98-10.46-5.84-6.01-3.65-13.94-8.66-19.79-12.55-2.82-1.87-6.5-4.48-9.19-6.53-5.05-3.85-11.75-9.04-16.61-13.13-3.72-3.14-7.83-6.82-12.24-10.94-3.74-3.51-5.7-5.49-10.44-10.3-2.29-2.32-10.67-11.16-18.36-20.72-9.03-11.22-13.34-17.59-17.91-24.34-3.44-5.09-6.36-9.95-9.73-15.59-1.79-3-4.03-7.09-5.69-10.16-1.99-3.68-4.5-8.66-6.31-12.43s-4-8.6-5.59-12.34c-2.71-6.37-6.16-14.95-8.28-21.55-3.22-10.03-6.91-23.59-9.47-33.81l.03-.07Z"/></g><g class="cls-4"><g class="cls-3"><g class="cls-4"><path class="cls-1" d="M93.71,489c-116.1-98.6-117.24-261.93-2.57-364.79,18.28,83.15,127.21,230.48,243.3,329.08-114.67,102.87-222.46,118.86-240.73,35.71h0Z"/><path class="cls-1" d="M15.96,373.46c9.22,41.97,64.2,116.33,122.8,166.1"/><path class="cls-1" d="M15.04,242.59c15.78,71.8,109.84,199.02,210.09,284.15"/><path class="cls-1" d="M93.71,489C2.69,445.83,21.87,327.43,136.54,224.57"/><path class="cls-1" d="M93.71,489c-42.81,22.03,15.44-43.51,130.12-146.37"/><path class="cls-1" d="M93.71,489c18.28,83.15,126.06,67.16,240.73-35.71,116.1,98.6,195.39,111.13,177.12,27.98-114.67,102.87-301.76,106.33-417.85,7.73h0Z"/><path class="cls-1" d="M138.76,539.56c58.6,49.77,98.62,56.09,89.39,14.12"/><path class="cls-1" d="M225.13,526.74c100.25,85.14,168.72,95.95,152.94,24.16"/><path class="cls-1" d="M93.71,489c74.38,121.56,227.64,136.71,342.31,33.84"/><path class="cls-1" d="M93.71,489c109.47,127.1,291.18,146.75,405.86,43.88"/><path class="cls-1" d="M93.71,489c116.1,98.6,303.18,95.14,417.85-7.73-18.28-83.15-127.21-230.48-243.3-329.08-114.67,102.87-192.82,253.67-174.55,336.82h0Z"/><path class="cls-1" d="M228.16,553.68c-9.22-41.97-64.2-116.33-122.8-166.1"/><path class="cls-1" d="M378.06,550.9c-15.78-71.8-109.84-199.02-210.09-284.15"/><path class="cls-1" d="M93.71,489c91.02,43.17,257.77-5.23,372.45-108.09"/><path class="cls-1" d="M93.71,489c42.81-22.03,170.49-123.29,285.16-226.15"/><path class="cls-1" d="M93.71,489c-18.28-83.15,59.87-233.95,174.55-336.82C152.16,53.58,72.86,41.06,91.14,124.2c-114.67,102.87-113.53,266.2,2.57,364.79h0Z"/><path class="cls-1" d="M105.36,387.58c-58.6-49.77-98.62-56.09-89.39-14.12"/><path class="cls-1" d="M167.98,266.75C67.73,181.61-.74,170.79,15.04,242.59"/><path class="cls-1" d="M93.71,489C19.33,367.44,52.01,185.5,166.68,82.63"/><path class="cls-1" d="M93.71,489C-15.76,361.89-11.54,175.46,103.14,72.59"/><path class="cls-1" d="M91.14,124.2c114.68-102.87,301.76-106.33,417.85-7.73,18.28,83.15-59.87,233.94-174.55,336.82C218.35,354.69,109.42,207.35,91.14,124.2Z"/><path class="cls-1" d="M224.64,54.57c15.78,71.8,109.84,199.02,210.09,284.15"/><path class="cls-1" d="M374.55,51.79c9.22,41.97,64.2,116.33,122.8,166.1"/><path class="cls-1" d="M136.54,224.57c114.68-102.87,281.43-151.27,372.45-108.09"/><path class="cls-1" d="M223.83,342.63c114.68-102.87,242.35-204.12,285.16-226.15"/><path class="cls-1" d="M334.45,453.29c114.68-102.87,192.82-253.67,174.55-336.82,116.1,98.6,117.25,261.92,2.57,364.79,18.28,83.15-61.02,70.62-177.12-27.98h0Z"/><path class="cls-1" d="M434.73,338.72c100.25,85.14,168.72,95.95,152.94,24.16"/><path class="cls-1" d="M497.35,217.89c58.6,49.77,98.62,56.09,89.39,14.12"/><path class="cls-1" d="M436.03,522.84c114.68-102.87,147.35-284.81,72.97-406.37"/><path class="cls-1" d="M499.57,532.88c114.68-102.87,118.9-289.3,9.43-416.41"/><path class="cls-1" d="M511.56,481.27c114.68-102.87,113.53-266.2-2.57-364.79-18.28-83.15-126.05-67.16-240.73,35.71,116.1,98.6,225.03,245.94,243.3,329.08h0Z"/><path class="cls-1" d="M587.67,362.88c-15.78-71.8-109.84-199.02-210.09-284.15"/><path class="cls-1" d="M586.74,232.01c-9.22-41.97-64.2-116.33-122.8-166.1"/><path class="cls-1" d="M466.16,380.9c114.68-102.87,133.85-221.26,42.83-264.43"/><path class="cls-1" d="M378.88,262.85c114.68-102.87,172.93-168.4,130.12-146.37"/><path class="cls-1" d="M268.26,152.18c114.68-102.87,222.46-118.86,240.73-35.71C392.9,17.87,205.82,21.33,91.14,124.2c-18.28-83.15,61.02-70.62,177.12,27.98h0Z"/><path class="cls-1" d="M377.58,78.72C277.33-6.41,208.86-17.23,224.64,54.57"/><path class="cls-1" d="M463.94,65.91c-58.6-49.77-98.62-56.09-89.39-14.12"/><path class="cls-1" d="M166.68,82.63C281.36-20.25,434.62-5.09,508.99,116.47"/><path class="cls-1" d="M103.14,72.59C217.82-30.28,399.52-10.63,508.99,116.47"/></g><path class="cls-1" d="M115.17,527.45c-4.95-4.21-20-17.04-36.6-36.61-8.92-10.51-15.13-19.27-17.78-23.01-3.1-4.38-3.46-4.93-9.37-14.12-1.49-2.31-3.33-5.49-4.75-7.84-2.58-4.26-7.91-14.08-10.94-20.35-3.56-7.39-7.94-17.42-10.96-25.05-2.22-5.61-4.89-13.2-6.63-18.98-2.35-7.79-5.11-18.3-6.98-26.22-17.67-80.38,8.92-167.33,79.97-231.06,114.68-102.87,301.76-106.33,417.85-7.73C392.9,17.87,205.82,21.33,91.14,124.2,20.09,187.94-6.5,274.89,11.17,355.27c-1.11-5.97-2.9-13.88-3.69-19.9-1.26-9.49-2.78-22.2-3.14-31.77-.49-13.03.02-30.46,1.13-43.45.73-8.52,2.22-19.87,4.18-28.19,1.81-7.7,3.93-18.05,6.29-25.6,2.02-6.46,4.8-15.06,7.22-21.39,8.13-21.25,22.83-52.17,49.74-83.3,7.02-8.13,16.95-18.54,25.09-25.55,10.74-9.25,25.92-20.6,37.69-28.5,6.35-4.26,15.34-9.13,22.15-12.6,18.12-9.25,34.01-14.83,44.59-18.12,35.77-11.1,68.56-13.53,94.62-12.77,6.49.19,15.13.84,21.6,1.42,7.94.71,18.43,2.58,26.31,3.86,9.17,1.49,21.2,4.65,30.09,7.37,22.12,6.76,35.37,12.8,48.08,18.9,4.41,2.12,10.19,5.16,14.43,7.6,6.11,3.52,14.17,8.38,20.04,12.27s12.9,8.9,18.21,13.01c8.18,6.31,12.98,10.47,17.99,14.93,1.82,1.62,4.22,3.8,5.97,5.48,3.16,3.04,7.35,7.13,10.42,10.28,1.22,1.25,7.6,7.86,13.95,15.39,4.17,4.95,15.23,18.09,27.15,37.14,5.92,9.46,9.98,17.13,10.15,17.45,4.78,9.05,6.29,12.04,11.19,22.92,2.09,4.64,4.65,10.92,6.38,15.7s4.12,11.22,5.55,16.14c2.27,7.82,5.15,18.29,6.98,26.22,1.38,5.95,2.8,13.98,3.71,20.02s1.89,14.31,2.4,20.47,1.05,14.73,1.02,21.05-.11,15.29-.5,21.83c-.49,8.27-1.69,19.26-2.91,27.45-3.43,22.92-9.36,41.13-11.31,47.12-4.21,12.94-11.56,29.61-17.62,41.79-3.45,6.93-8.79,15.8-12.94,22.33-3.73,5.86-9.2,13.36-13.33,18.95-4.62,6.25-11.43,14.1-16.71,19.8-5.28,5.7-12.69,13.2-18.62,18.33-5.41,4.67-12.67,10.84-18.38,15.14s-13.85,10.11-20.14,13.88c-5.97,3.57-13.95,8.32-20.15,11.48-6.8,3.47-15.99,7.89-23.11,10.63-6.37,2.45-14.88,5.68-21.4,7.7-7.32,2.27-17.17,5.06-24.68,6.57-13.11,2.64-30.84,4.89-44.16,6.15-7.69.73-18.01.66-25.73.47-8.3-.21-19.37-.82-27.59-1.97-12.16-1.7-28.31-4.56-40.22-7.52-8.19-2.04-19-5.29-26.91-8.26-4.88-1.84-11.41-4.26-16.2-6.31-5.74-2.46-13.34-5.89-18.9-8.74-3.21-1.65-7.5-3.82-10.62-5.63-6.14-3.56-14.33-8.34-20.24-12.27-4.75-3.15-17.37-11.53-31.11-23.23h-.01Z"/></g><path class="cls-2" d="M115.17,527.45c-4.95-4.21-20-17.04-36.6-36.61-8.92-10.51-15.13-19.27-17.78-23.01-3.1-4.38-3.46-4.93-9.37-14.12-1.49-2.31-3.33-5.49-4.75-7.84-2.58-4.26-7.91-14.08-10.94-20.35-3.56-7.39-7.94-17.42-10.96-25.05-2.22-5.61-4.89-13.2-6.63-18.98-2.35-7.79-5.11-18.3-6.98-26.22-17.67-80.38,8.92-167.33,79.97-231.06,114.68-102.87,301.76-106.33,417.85-7.73C392.9,17.87,205.82,21.33,91.14,124.2,20.09,187.94-6.5,274.89,11.17,355.27c-1.11-5.97-2.9-13.88-3.69-19.9-1.26-9.49-2.78-22.2-3.14-31.77-.49-13.03.02-30.46,1.13-43.45.73-8.52,2.22-19.87,4.18-28.19,1.81-7.7,3.93-18.05,6.29-25.6,2.02-6.46,4.8-15.06,7.22-21.39,8.13-21.25,22.83-52.17,49.74-83.3,7.02-8.13,16.95-18.54,25.09-25.55,10.74-9.25,25.92-20.6,37.69-28.5,6.35-4.26,15.34-9.13,22.15-12.6,18.12-9.25,34.01-14.83,44.59-18.12,35.77-11.1,68.56-13.53,94.62-12.77,6.49.19,15.13.84,21.6,1.42,7.94.71,18.43,2.58,26.31,3.86,9.17,1.49,21.2,4.65,30.09,7.37,22.12,6.76,35.37,12.8,48.08,18.9,4.41,2.12,10.19,5.16,14.43,7.6,6.11,3.52,14.17,8.38,20.04,12.27s12.9,8.9,18.21,13.01c8.18,6.31,12.98,10.47,17.99,14.93,1.82,1.62,4.22,3.8,5.97,5.48,3.16,3.04,7.35,7.13,10.42,10.28,1.22,1.25,7.6,7.86,13.95,15.39,4.17,4.95,15.23,18.09,27.15,37.14,5.92,9.46,9.98,17.13,10.15,17.45,4.78,9.05,6.29,12.04,11.19,22.92,2.09,4.64,4.65,10.92,6.38,15.7s4.12,11.22,5.55,16.14c2.27,7.82,5.15,18.29,6.98,26.22,1.38,5.95,2.8,13.98,3.71,20.02s1.89,14.31,2.4,20.47,1.05,14.73,1.02,21.05-.11,15.29-.5,21.83c-.49,8.27-1.69,19.26-2.91,27.45-3.43,22.92-9.36,41.13-11.31,47.12-4.21,12.94-11.56,29.61-17.62,41.79-3.45,6.93-8.79,15.8-12.94,22.33-3.73,5.86-9.2,13.36-13.33,18.95-4.62,6.25-11.43,14.1-16.71,19.8-5.28,5.7-12.69,13.2-18.62,18.33-5.41,4.67-12.67,10.84-18.38,15.14s-13.85,10.11-20.14,13.88c-5.97,3.57-13.95,8.32-20.15,11.48-6.8,3.47-15.99,7.89-23.11,10.63-6.37,2.45-14.88,5.68-21.4,7.7-7.32,2.27-17.17,5.06-24.68,6.57-13.11,2.64-30.84,4.89-44.16,6.15-7.69.73-18.01.66-25.73.47-8.3-.21-19.37-.82-27.59-1.97-12.16-1.7-28.31-4.56-40.22-7.52-8.19-2.04-19-5.29-26.91-8.26-4.88-1.84-11.41-4.26-16.2-6.31-5.74-2.46-13.34-5.89-18.9-8.74-3.21-1.65-7.5-3.82-10.62-5.63-6.14-3.56-14.33-8.34-20.24-12.27-4.75-3.15-17.37-11.53-31.11-23.23h-.01Z"/></g></g></svg>